<?xml version="1.0" encoding="UTF-8" standalone="no"?>
<!DOCTYPE svg PUBLIC "-//W3C//DTD SVG 1.1//EN" "http://www.w3.org/Graphics/SVG/1.1/DTD/svg11.dtd">
<svg width="100%" height="100%" viewBox="0 0 143 32" version="1.1" xmlns="http://www.w3.org/2000/svg" xmlns:xlink="http://www.w3.org/1999/xlink" xml:space="preserve" xmlns:serif="http://www.serif.com/" style="fill-rule:evenodd;clip-rule:evenodd;stroke-linejoin:round;stroke-miterlimit:2;">
    <g transform="matrix(0.660322,-0.00322411,0.00479846,0.982759,0.708391,0.405568)">
        <path d="M8.324,8.405C8.324,7.792 7.664,7.294 6.851,7.294L3.904,7.294C3.091,7.294 2.431,7.792 2.431,8.405L2.431,25.018C2.431,25.631 3.091,26.129 3.904,26.129L6.851,26.129C7.664,26.129 8.324,25.631 8.324,25.018L8.324,8.405Z" style="fill:rgb(179,179,179);"/>
    </g>
    <g transform="matrix(0.449369,0,0,1,1.57519,0.0204348)">
        <rect x="1.745" y="10.162" width="8.689" height="1.164" style="fill:white;"/>
    </g>
    <g transform="matrix(0.450345,0,0,1,1.63192,12.383)">
        <rect x="1.745" y="10.162" width="8.689" height="1.164" style="fill:white;"/>
    </g>
    <g transform="matrix(0.660322,-0.00322411,0.00479846,0.982759,5.05147,0.431607)">
        <path d="M8.324,8.405C8.324,7.792 7.664,7.294 6.851,7.294L3.904,7.294C3.091,7.294 2.431,7.792 2.431,8.405L2.431,25.018C2.431,25.631 3.091,26.129 3.904,26.129L6.851,26.129C7.664,26.129 8.324,25.631 8.324,25.018L8.324,8.405Z" style="fill:rgb(179,179,179);"/>
    </g>
    <g transform="matrix(0.44934,0,0,1,5.91779,0.0204348)">
        <rect x="1.745" y="10.162" width="8.689" height="1.164" style="fill:white;"/>
    </g>
    <g transform="matrix(0.449581,0,0,1,5.981,12.383)">
        <rect x="1.745" y="10.162" width="8.689" height="1.164" style="fill:white;"/>
    </g>
    <g transform="matrix(0.638131,-0.169776,0.252679,0.949733,7.11545,1.48651)">
        <path d="M8.324,8.405C8.324,7.792 7.664,7.294 6.851,7.294L3.904,7.294C3.091,7.294 2.431,7.792 2.431,8.405L2.431,25.018C2.431,25.631 3.091,26.129 3.904,26.129L6.851,26.129C7.664,26.129 8.324,25.631 8.324,25.018L8.324,8.405Z" style="fill:rgb(179,179,179);"/>
    </g>
    <g transform="matrix(0.43376,-0.113138,0.252387,0.967626,7.86221,0.89618)">
        <rect x="1.745" y="10.162" width="8.689" height="1.164" style="fill:white;"/>
    </g>
    <g transform="matrix(0.434468,-0.113323,0.252387,0.967626,11.0366,12.8444)">
        <rect x="1.745" y="10.162" width="8.689" height="1.164" style="fill:white;"/>
    </g>
    <g transform="matrix(0.857023,0,0,0.857023,-0.0101252,13.5046)">
        <text x="26.065px" y="11.005px" style="font-family:'AmericanTypewriter-Bold', 'American Typewriter', serif;font-weight:700;font-size:21.046px;fill:rgb(179,179,179);">The Collector</text>
    </g>
</svg>
